<svg xmlns="http://www.w3.org/2000/svg" width="40" height="40" viewBox="0 0 40 40">
  <defs>
    <linearGradient id="direnv-bg-dark" x1="0%" y1="0%" x2="100%" y2="100%">
      <stop offset="0%" stop-color="#4dd619"/>
      <stop offset="100%" stop-color="#1cc8e0"/>
    </linearGradient>
  </defs>
  <rect x="2" y="2" width="36" height="36" rx="8" ry="8" fill="url(#direnv-bg-dark)"/>
  <path d="M14 10h4.5c3.2 0 5.8 1 7.6 2.8 1.8 1.9 2.7 4.4 2.7 7.2s-0.9 5.3-2.7 7.2c-1.8 1.8-4.4 2.8-7.6 2.8H14V10zm4.2 4v12.1h0.5c2 0 3.5-0.6 4.6-1.8 1.1-1.2 1.6-2.9 1.6-5.2s-0.5-4-1.6-5.2c-1.1-1.2-2.6-1.8-4.6-1.8h-0.5z" fill="#ffffff"/>
</svg>
